<?xml version="1.0" encoding="utf-8"?>
<!-- Generator: Adobe Illustrator 16.2.0, SVG Export Plug-In . SVG Version: 6.00 Build 0)  -->
<!DOCTYPE svg PUBLIC "-//W3C//DTD SVG 1.1//EN" "http://www.w3.org/Graphics/SVG/1.1/DTD/svg11.dtd">
<svg version="1.1" xmlns="http://www.w3.org/2000/svg" xmlns:xlink="http://www.w3.org/1999/xlink" x="0px" y="0px" width="60px"
	 height="60px" viewBox="0 0 60 60" enable-background="new 0 0 60 60" xml:space="preserve">
<g id="Layer_1" display="none">
	<rect display="inline" fill="#A6D7F4" width="60" height="60"/>
</g>
<g id="overlay">
	<g>
		<path fill="#333333" d="M40.896,29.949c0,0.675-0.191,1.167-0.574,1.477c-0.383,0.311-0.875,0.465-1.477,0.465
			c-0.401,0-1.363-0.195-2.885-0.588c-1.522-0.392-3.231-0.697-5.127-0.916c0.82,1.131,1.586,2.074,2.297,2.83
			c0.711,0.757,1.303,1.391,1.777,1.9c0.492,0.529,0.875,0.994,1.148,1.395c0.273,0.401,0.41,0.83,0.41,1.285
			c0,0.492-0.219,0.921-0.656,1.285c-0.438,0.365-0.902,0.547-1.395,0.547c-0.328,0-0.639-0.096-0.93-0.287
			c-0.292-0.191-0.538-0.46-0.738-0.807c-0.292-0.528-0.579-1.376-0.861-2.543c-0.283-1.166-0.907-2.88-1.873-5.141
			c-0.875,2.17-1.486,3.888-1.832,5.154c-0.347,1.268-0.647,2.11-0.902,2.529c-0.237,0.365-0.479,0.639-0.725,0.82
			c-0.246,0.183-0.561,0.273-0.943,0.273c-0.511,0-0.98-0.173-1.408-0.52c-0.429-0.346-0.643-0.783-0.643-1.312
			c0-0.438,0.127-0.848,0.383-1.23c0.255-0.383,0.647-0.865,1.176-1.449c0.456-0.474,1.062-1.121,1.818-1.941
			c0.756-0.82,1.508-1.75,2.256-2.789c-1.787,0.183-3.45,0.479-4.99,0.889c-1.541,0.41-2.548,0.615-3.021,0.615
			c-0.602,0-1.094-0.15-1.477-0.451s-0.574-0.797-0.574-1.49c0-0.62,0.191-1.098,0.574-1.436c0.383-0.337,0.875-0.506,1.477-0.506
			c0.547,0,1.508,0.191,2.885,0.574c1.376,0.383,3.085,0.675,5.127,0.875c-0.711-0.966-1.458-1.882-2.242-2.748
			c-0.784-0.866-1.395-1.526-1.832-1.982c-0.511-0.547-0.898-1.016-1.162-1.408c-0.265-0.392-0.396-0.815-0.396-1.271
			c0-0.492,0.219-0.92,0.656-1.285c0.438-0.364,0.902-0.547,1.395-0.547c0.328,0,0.633,0.091,0.916,0.273
			c0.282,0.183,0.533,0.456,0.752,0.82c0.255,0.438,0.592,1.417,1.012,2.939c0.419,1.522,0.993,3.104,1.723,4.744
			c0.82-1.859,1.417-3.486,1.791-4.881c0.373-1.395,0.688-2.329,0.943-2.803c0.2-0.346,0.441-0.615,0.725-0.807
			c0.282-0.191,0.597-0.287,0.943-0.287c0.51,0,0.979,0.173,1.408,0.52c0.428,0.347,0.643,0.784,0.643,1.312
			c0,0.748-0.506,1.623-1.518,2.625c-1.012,1.003-2.384,2.598-4.115,4.785c1.969-0.219,3.678-0.515,5.127-0.889
			c1.449-0.374,2.41-0.561,2.885-0.561c0.602,0,1.094,0.164,1.477,0.492S40.896,29.312,40.896,29.949z"/>
	</g>
</g>
</svg>
